<svg width="150" height="150" viewBox="0 0 150 150" fill="none" xmlns="http://www.w3.org/2000/svg">
<path d="M65.4378 57.7278H84.5627V85.0984C84.5627 88.6192 81.7085 91.4734 78.1877 91.4734H71.8128C68.292 91.4734 65.4378 88.6192 65.4378 85.0984V57.7278Z" fill="white"/>
<path d="M65.4378 57.7278H84.5627V85.0984C84.5627 88.6192 81.7085 91.4734 78.1877 91.4734H71.8128C68.292 91.4734 65.4378 88.6192 65.4378 85.0984V57.7278Z" fill="url(#paint0_linear_408_139)"/>
<path d="M75 28.2407C30.3751 25.6682 24 44.2286 24 59.4136V81.3483C24 117.794 47.3751 123.531 59.0626 121.843V111.992C59.0626 107.814 56.2716 104.214 52.507 102.401C21.2417 87.3392 38.2529 49.0409 60.0316 67.2722C63.9002 70.5107 65.4375 75.6581 65.4375 80.7033V84.7234L75 69.5378V28.2407Z" fill="white"/>
<path d="M75 28.2407C30.3751 25.6682 24 44.2286 24 59.4136V81.3483C24 117.794 47.3751 123.531 59.0626 121.843V111.992C59.0626 107.814 56.2716 104.214 52.507 102.401C21.2417 87.3392 38.2529 49.0409 60.0316 67.2722C63.9002 70.5107 65.4375 75.6581 65.4375 80.7033V84.7234L75 69.5378V28.2407Z" fill="url(#paint1_linear_408_139)"/>
<path d="M75 28.2407C119.625 25.6682 126 44.2286 126 59.4136V81.3483C126 117.794 102.625 123.531 90.9374 121.843V111.992C90.9374 107.814 93.7284 104.214 97.493 102.401C128.758 87.3392 111.747 49.0409 89.9684 67.2722C86.0998 70.5107 84.5625 75.6581 84.5625 80.7033V84.7234L75 69.5378V28.2407Z" fill="white"/>
<path d="M75 28.2407C119.625 25.6682 126 44.2286 126 59.4136V81.3483C126 117.794 102.625 123.531 90.9374 121.843V111.992C90.9374 107.814 93.7284 104.214 97.493 102.401C128.758 87.3392 111.747 49.0409 89.9684 67.2722C86.0998 70.5107 84.5625 75.6581 84.5625 80.7033V84.7234L75 69.5378V28.2407Z" fill="url(#paint2_linear_408_139)"/>
<defs>
<linearGradient id="paint0_linear_408_139" x1="75" y1="28" x2="75" y2="122.104" gradientUnits="userSpaceOnUse">
<stop stop-color="#CE8AFF"/>
<stop offset="1" stop-color="#B753FF"/>
</linearGradient>
<linearGradient id="paint1_linear_408_139" x1="75" y1="28" x2="75" y2="122.104" gradientUnits="userSpaceOnUse">
<stop stop-color="#CE8AFF"/>
<stop offset="1" stop-color="#B753FF"/>
</linearGradient>
<linearGradient id="paint2_linear_408_139" x1="75" y1="28" x2="75" y2="122.104" gradientUnits="userSpaceOnUse">
<stop stop-color="#CE8AFF"/>
<stop offset="1" stop-color="#B753FF"/>
</linearGradient>
</defs>
</svg>
