<svg width="150" height="150" viewBox="0 0 150 150" fill="none" xmlns="http://www.w3.org/2000/svg">
<path d="M75 21C104.823 21 129 45.1766 129 75C129 104.823 104.823 129 75 129C45.1766 129 21 104.823 21 75C21 45.1766 45.1766 21 75 21ZM122.03 72.9883C113.519 96.0499 100.478 112.156 81.9502 124.154C93.6042 121.822 127.134 105.778 122.03 72.9883ZM74.9229 39.9854C59.9253 39.9854 47.7667 55.6622 47.7666 75C47.7666 94.3379 59.9252 110.015 74.9229 110.015C89.9203 110.014 102.078 94.3377 102.078 75C102.078 55.6624 89.9202 39.9857 74.9229 39.9854ZM58.3516 33.498C46.6354 35.493 24.938 45.2894 29.0938 78.2129C33.6971 56.6537 42.7903 42.5642 58.3516 33.498Z" fill="url(#paint0_linear_287_126)"/>
<defs>
<linearGradient id="paint0_linear_287_126" x1="75" y1="21" x2="75" y2="129" gradientUnits="userSpaceOnUse">
<stop stop-color="#72FFE0"/>
<stop offset="1" stop-color="#033930"/>
</linearGradient>
</defs>
</svg>
