<svg width="150" height="150" viewBox="0 0 150 150" fill="none" xmlns="http://www.w3.org/2000/svg">
<path d="M40.9072 68.1688C40.9072 62.9721 41.7412 57.9928 43.2691 53.4198C43.9222 51.4657 46.0368 50.4113 47.9919 51.0639C49.9471 51.7165 51.0031 53.83 50.3502 55.7844C49.0787 59.5901 48.3714 63.7703 48.3714 68.1688C48.3714 86.7918 60.7096 100.615 74.4998 100.615C88.2897 100.615 100.627 86.7916 100.627 68.1688C100.627 63.7702 99.9196 59.5892 98.6482 55.7831C97.9958 53.8291 99.0518 51.7166 101.006 51.0639C102.962 50.4113 105.076 51.4666 105.729 53.421C107.257 57.9937 108.092 62.9722 108.092 68.1688C108.092 89.5054 93.6918 108.075 74.4998 108.076C55.3075 108.076 40.9072 89.5055 40.9072 68.1688Z" fill="url(#paint0_linear_287_116)"/>
<path d="M74.4998 100.615C81.2891 100.615 85.3453 106.165 87.4116 110.059C88.5309 112.168 89.3147 114.245 89.8167 115.773C90.0697 116.543 90.2558 117.19 90.381 117.653C90.4436 117.884 90.4908 118.071 90.5239 118.204C90.5405 118.271 90.5539 118.326 90.5633 118.366C90.568 118.385 90.5715 118.402 90.5744 118.415C90.5759 118.421 90.5771 118.426 90.5781 118.431C90.5787 118.433 90.5802 118.435 90.5806 118.437V118.44C90.5782 118.441 90.4824 118.464 86.9421 119.268L90.5818 118.442C91.0386 120.451 89.7789 122.45 87.7689 122.906C85.7609 123.363 83.7634 122.108 83.3037 120.102L83.2778 119.997C83.2568 119.913 83.2232 119.778 83.1755 119.602C83.0798 119.249 82.9298 118.729 82.7233 118.101C82.3062 116.831 81.6761 115.176 80.816 113.555C78.9234 109.988 76.7578 108.076 74.4998 108.076C72.2417 108.076 70.0757 109.988 68.183 113.555C67.323 115.176 66.6928 116.831 66.2757 118.101C66.0693 118.729 65.9205 119.249 65.8248 119.602C65.777 119.778 65.7423 119.913 65.7213 119.997C65.7109 120.039 65.7043 120.069 65.7003 120.086C65.6983 120.094 65.697 120.101 65.6966 120.102C65.2369 122.108 63.2382 123.363 61.2302 122.906C59.2205 122.449 57.9617 120.451 58.4185 118.442L62.0582 119.268C58.4473 118.448 58.4184 118.441 58.4185 118.44L58.4197 118.437C58.4201 118.435 58.4204 118.433 58.4209 118.431C58.422 118.426 58.4232 118.421 58.4246 118.415C58.4276 118.402 58.4323 118.385 58.437 118.366C58.4464 118.326 58.4586 118.271 58.4751 118.204C58.5083 118.071 58.5567 117.884 58.6193 117.653C58.7445 117.19 58.9306 116.543 59.1836 115.773C59.6856 114.245 60.4694 112.168 61.5887 110.059C63.6551 106.165 67.7105 100.615 74.4998 100.615Z" fill="url(#paint1_linear_287_116)"/>
<path d="M104.275 57.4575C103.264 58.3067 101.88 58.5596 100.635 58.1226L101.872 54.6028L104.275 57.4575ZM95.1113 26.8758C96.1213 26.0264 97.5054 25.7737 98.751 26.2108L97.5139 29.7305C98.6844 26.3983 98.7486 26.221 98.7534 26.212L98.7645 26.2157C98.7693 26.2174 98.7748 26.2186 98.7805 26.2206C98.7925 26.2249 98.8065 26.2308 98.8224 26.2366C98.8542 26.2483 98.894 26.2631 98.9407 26.281C99.0341 26.3168 99.1573 26.3654 99.3054 26.4275C99.6015 26.5518 100.003 26.7318 100.477 26.9731C101.421 27.4534 102.688 28.1935 104.015 29.2515C106.669 31.3691 109.696 34.8801 110.624 40.1777C111.551 45.469 109.909 49.8272 108.152 52.7444C107.273 54.2045 106.342 55.3473 105.624 56.1324C105.263 56.527 104.949 56.8372 104.716 57.0585C104.599 57.169 104.502 57.2582 104.427 57.3245C104.39 57.3578 104.358 57.3863 104.332 57.4083C104.32 57.4191 104.309 57.4285 104.299 57.4366C104.294 57.4407 104.29 57.4443 104.286 57.4477C104.284 57.4494 104.281 57.4511 104.279 57.4526L104.277 57.4551L101.872 54.6028L100.632 58.1213L100.621 58.1176C100.616 58.1159 100.611 58.1136 100.605 58.1115C100.593 58.1072 100.579 58.1025 100.563 58.0967C100.532 58.0851 100.492 58.0703 100.445 58.0524C100.352 58.0166 100.229 57.9679 100.082 57.9058C99.7856 57.7816 99.3844 57.6016 98.9099 57.3602C97.9656 56.8799 96.6977 56.1401 95.3712 55.0819C92.7168 52.9642 89.6904 49.4522 88.7621 44.1544C87.8351 38.8632 89.4773 34.5049 91.2338 31.5877C92.1128 30.1279 93.0441 28.986 93.7621 28.201C94.1231 27.8063 94.4364 27.4949 94.6702 27.2736C94.787 27.163 94.8851 27.074 94.9597 27.0076C94.9968 26.9746 95.028 26.947 95.0534 26.9251C95.0661 26.9141 95.077 26.9037 95.0866 26.8955C95.0914 26.8914 95.0962 26.8878 95.1002 26.8844C95.1021 26.8828 95.1046 26.881 95.1063 26.8795L95.1088 26.8783C95.1138 26.8818 95.2074 26.9912 97.4585 29.6653L95.1113 26.8758ZM103.118 51.0855C103.119 51.0861 103.121 51.0862 103.123 51.0868L103.115 51.0843L103.118 51.0855ZM98.3517 34.3562C98.1136 34.6789 97.868 35.0394 97.6297 35.4351C96.4855 37.3354 95.5899 39.8682 96.1154 42.8674C96.6398 45.86 98.33 47.8941 100.029 49.2493C100.373 49.5237 100.712 49.7653 101.033 49.9759C101.271 49.653 101.518 49.293 101.756 48.8971C102.9 46.9967 103.796 44.4639 103.27 41.4647C102.746 38.4724 101.056 36.438 99.3572 35.0828C99.0128 34.8082 98.6732 34.567 98.3517 34.3562Z" fill="url(#paint2_linear_287_116)"/>
<path d="M118.564 55.8771C120.348 55.7813 121.887 55.9222 122.989 56.0889C123.543 56.1726 123.995 56.2643 124.323 56.3389C124.488 56.3762 124.622 56.4099 124.723 56.4362C124.773 56.4493 124.816 56.4601 124.85 56.4694L124.91 56.4867L124.921 56.4904C124.921 56.4962 124.883 56.6327 123.88 60.0729L124.925 56.4916C126.191 56.8608 127.168 57.8707 127.495 59.148L123.88 60.0729C127.394 59.1739 127.493 59.1497 127.496 59.1505L127.497 59.1542C127.498 59.1564 127.498 59.1591 127.499 59.1616C127.5 59.1667 127.502 59.1727 127.504 59.1788C127.507 59.191 127.509 59.2055 127.513 59.2219C127.522 59.2556 127.533 59.2981 127.544 59.3488C127.567 59.4502 127.596 59.5857 127.628 59.7515C127.692 60.0829 127.771 60.5405 127.839 61.1C127.974 62.2137 128.072 63.7659 127.932 65.5582C127.654 69.1382 126.4 73.8769 122.384 77.8453C118.361 81.8203 113.633 82.9826 110.063 83.1742C108.28 83.2699 106.742 83.1278 105.64 82.9612C105.086 82.8775 104.633 82.7858 104.305 82.7112C104.141 82.6739 104.007 82.6414 103.906 82.6151C103.855 82.602 103.813 82.5899 103.779 82.5806C103.762 82.576 103.747 82.5719 103.735 82.5683C103.729 82.5666 103.722 82.5648 103.717 82.5634C103.715 82.5627 103.712 82.5628 103.71 82.5622L103.708 82.5609L104.749 78.9784L101.132 79.8996L101.131 79.8971C101.131 79.8949 101.129 79.8922 101.129 79.8897C101.127 79.8846 101.127 79.8787 101.125 79.8725C101.122 79.86 101.118 79.845 101.114 79.8281C101.106 79.7945 101.096 79.7519 101.084 79.7013C101.061 79.5998 101.033 79.4645 101.001 79.2986C100.936 78.967 100.858 78.5097 100.79 77.95C100.655 76.8363 100.556 75.2842 100.695 73.4918C100.973 69.9119 102.228 65.1729 106.243 61.2047C110.266 57.2296 114.994 56.0687 118.564 55.8771ZM103.704 82.5597C102.437 82.1906 101.46 81.1807 101.132 79.9033L104.749 78.9784L103.704 82.5597ZM120.527 63.3291C120.053 63.303 119.526 63.2978 118.965 63.3279C116.77 63.4458 114.192 64.0959 111.938 66.0939L111.492 66.5114C109.131 68.8449 108.325 71.6662 108.138 74.0707C108.092 74.6642 108.084 75.2202 108.1 75.7197C108.575 75.7458 109.101 75.7535 109.662 75.7234C112.004 75.5977 114.782 74.8664 117.136 72.5399C119.498 70.2064 120.303 67.385 120.49 64.9806C120.537 64.3863 120.543 63.8292 120.527 63.3291ZM105.78 75.3921C105.778 75.3916 105.776 75.3913 105.775 75.3909C105.771 75.3897 105.768 75.3897 105.768 75.3896C105.768 75.3896 105.772 75.39 105.78 75.3921Z" fill="url(#paint3_linear_287_116)"/>
<path d="M99.6759 88.6755C102.744 87.534 107.165 86.7578 111.998 88.6115C116.835 90.4665 119.588 93.997 121.09 96.8998C121.841 98.3516 122.304 99.689 122.582 100.672C122.722 101.166 122.818 101.58 122.88 101.884C122.912 102.036 122.935 102.161 122.952 102.257C122.96 102.305 122.966 102.345 122.972 102.378L122.98 102.438C122.981 102.441 122.981 102.443 122.981 102.445L122.983 102.449C122.982 102.451 122.913 102.462 119.289 102.986L121.653 105.873L121.651 105.875C121.649 105.877 121.647 105.879 121.645 105.88C121.641 105.883 121.636 105.887 121.631 105.891C121.622 105.899 121.611 105.908 121.598 105.918C121.572 105.939 121.54 105.964 121.502 105.993C121.425 106.053 121.322 106.13 121.196 106.221C120.945 106.404 120.595 106.645 120.157 106.917C119.288 107.457 118.043 108.136 116.507 108.708C113.439 109.849 109.017 110.625 104.184 108.772C99.3475 106.917 96.5943 103.385 95.0924 100.482C94.3414 99.0307 93.8784 97.6942 93.6003 96.7113C93.4605 96.2171 93.3647 95.8036 93.3021 95.4995C93.2707 95.3472 93.2473 95.2208 93.2306 95.1251C93.2224 95.0774 93.2161 95.0369 93.2109 95.0044L93.2023 94.9441C93.2019 94.9416 93.2014 94.9389 93.2011 94.9367L93.1998 94.9342C93.1996 94.9326 93.1997 94.9302 96.8937 94.396C94.5602 91.5512 94.5285 91.5108 94.5293 91.5093L94.5318 91.5068C94.5335 91.5054 94.536 91.5047 94.5379 91.5031C94.5419 91.4999 94.5467 91.4959 94.5515 91.492C94.5611 91.4843 94.572 91.4751 94.5847 91.465C94.6105 91.4445 94.6425 91.4183 94.6808 91.3886C94.7576 91.3292 94.8604 91.2522 94.9864 91.1608C95.238 90.9782 95.5878 90.7366 96.0251 90.4649C96.8948 89.9247 98.1403 89.2469 99.6759 88.6755ZM122.983 102.452C123.17 103.745 122.667 105.043 121.656 105.872L119.289 102.986L122.983 102.452ZM109.325 95.5771C106.693 94.5678 104.23 94.9429 102.281 95.6682C101.922 95.8017 101.588 95.9484 101.281 96.0931C101.409 96.3992 101.552 96.7238 101.724 97.0549C102.669 98.8821 104.23 100.797 106.858 101.805C109.489 102.814 111.953 102.44 113.902 101.715C114.26 101.582 114.593 101.434 114.9 101.289C114.773 100.983 114.63 100.658 114.459 100.327C113.513 98.5001 111.953 96.5851 109.325 95.5771ZM99.2508 97.2889C99.2426 97.2953 99.2385 97.2988 99.2385 97.2988C99.2392 97.2982 99.2423 97.2967 99.2459 97.2938C99.2476 97.2925 99.2484 97.2908 99.2508 97.2889C99.252 97.2879 99.2543 97.2864 99.2557 97.2852L99.2582 97.284L99.257 97.2828C99.2545 97.2846 99.2528 97.2874 99.2508 97.2889ZM96.8937 94.396L93.1998 94.9305C93.0127 93.6372 93.516 92.3404 94.5268 91.5117L96.8937 94.396Z" fill="url(#paint4_linear_287_116)"/>
<path d="M36.9993 88.6115C41.8327 86.7576 46.2548 87.534 49.323 88.6755C50.8586 89.2469 52.104 89.9247 52.9738 90.4649C53.4111 90.7366 53.7608 90.9782 54.0125 91.1608C54.1385 91.2522 54.2412 91.3292 54.318 91.3886C54.3564 91.4183 54.3884 91.4445 54.4141 91.465C54.4268 91.4751 54.4378 91.4843 54.4474 91.492C54.4522 91.4959 54.4569 91.4999 54.4609 91.5031C54.4628 91.5047 54.4654 91.5054 54.4671 91.5068L54.4696 91.5093C54.4703 91.5109 54.4372 91.553 52.1051 94.396L55.799 94.9342L55.7978 94.9367C55.7975 94.9389 55.7969 94.9416 55.7966 94.9441L55.7879 95.0044C55.7828 95.0369 55.7765 95.0774 55.7682 95.1251C55.7516 95.2208 55.7281 95.3472 55.6968 95.4995C55.6341 95.8036 55.5384 96.2171 55.3986 96.7113C55.1205 97.6942 54.6575 99.0307 53.9065 100.482C52.4046 103.385 49.6523 106.917 44.8159 108.772C39.9824 110.626 35.5604 109.849 32.4922 108.708C30.9564 108.136 29.7112 107.457 28.8414 106.917C28.404 106.645 28.0544 106.404 27.8027 106.221C27.6767 106.13 27.5739 106.053 27.4971 105.993C27.4589 105.964 27.4267 105.939 27.401 105.918C27.3883 105.908 27.3774 105.899 27.3678 105.891C27.3629 105.887 27.3582 105.883 27.3542 105.88C27.3522 105.879 27.3499 105.877 27.3481 105.875L27.3456 105.873C27.3476 105.868 27.4323 105.763 29.71 102.986C26.0852 102.462 26.0172 102.451 26.0161 102.449L26.0174 102.445C26.0177 102.443 26.0182 102.441 26.0186 102.438L26.0272 102.378C26.0324 102.345 26.0387 102.305 26.0469 102.257C26.0635 102.161 26.0871 102.036 26.1184 101.884C26.181 101.58 26.2767 101.166 26.4166 100.672C26.6946 99.689 27.1575 98.3516 27.9087 96.8998C29.4105 93.9971 32.1631 90.4666 36.9993 88.6115ZM29.71 102.986L27.3431 105.872C26.332 105.043 25.8289 103.745 26.0161 102.452L29.71 102.986ZM46.7183 95.6682C44.7688 94.9429 42.3057 94.5678 39.6742 95.5771C37.0462 96.5851 35.4854 98.5001 34.54 100.327C34.3687 100.658 34.2248 100.983 34.0976 101.289C34.4048 101.434 34.738 101.582 35.0969 101.715C37.0464 102.44 39.5095 102.814 42.1409 101.805C44.7691 100.797 46.3298 98.8821 47.2752 97.0549C47.4465 96.7239 47.5892 96.3991 47.7163 96.0931C47.4095 95.9486 47.0767 95.8016 46.7183 95.6682ZM49.7407 97.2828L49.7431 97.2852C49.7446 97.2864 49.7456 97.2879 49.7468 97.2889C49.7492 97.2908 49.7513 97.2925 49.753 97.2938C49.7565 97.2967 49.7597 97.2982 49.7604 97.2988C49.7604 97.2988 49.7551 97.2953 49.7468 97.2889C49.7446 97.2872 49.7434 97.2849 49.7407 97.2828ZM54.472 91.5117C55.4829 92.3404 55.9862 93.6372 55.799 94.9305L52.1051 94.396L54.472 91.5117Z" fill="url(#paint5_linear_287_116)"/>
<path d="M26.0118 56.0889C27.1141 55.9223 28.652 55.7814 30.4352 55.8771C34.0053 56.0687 38.7339 57.2299 42.7564 61.2047C46.7719 65.1729 48.0262 69.9119 48.3047 73.4918C48.444 75.2842 48.3447 76.8363 48.2098 77.95C48.142 78.5097 48.0648 78.967 48.0003 79.2986C47.968 79.4646 47.9383 79.5998 47.9153 79.7013C47.9038 79.752 47.8939 79.7944 47.8857 79.8281C47.8817 79.845 47.879 79.86 47.8759 79.8725C47.8743 79.8787 47.8722 79.8846 47.871 79.8897C47.8703 79.8921 47.8703 79.8949 47.8697 79.8971L47.8685 79.8996L44.2522 78.9784L45.2933 82.5609L45.2897 82.5622C45.2874 82.5628 45.2848 82.5627 45.2823 82.5634C45.2771 82.5649 45.2713 82.5665 45.265 82.5683C45.2525 82.5719 45.2374 82.576 45.2207 82.5806C45.1871 82.5899 45.1452 82.602 45.095 82.6151C44.9942 82.6414 44.8601 82.6738 44.6958 82.7112C44.3676 82.7858 43.9152 82.8775 43.3614 82.9612C42.259 83.1278 40.7203 83.27 38.9368 83.1742C35.3666 82.9826 30.6381 81.8203 26.6156 77.8453C22.6001 73.8769 21.3457 69.1381 21.0673 65.5582C20.928 63.766 21.0273 62.2137 21.1622 61.1C21.23 60.5406 21.3084 60.0829 21.3729 59.7515C21.4051 59.5857 21.4337 59.4502 21.4567 59.3488C21.4681 59.2982 21.4781 59.2555 21.4863 59.2219C21.4902 59.2054 21.4943 59.1911 21.4973 59.1788C21.4989 59.1727 21.4998 59.1666 21.501 59.1616L21.5047 59.1505C21.5141 59.1513 21.6903 59.1953 25.121 60.0729L21.5047 59.148C21.8318 57.8706 22.8097 56.8607 24.0762 56.4916L25.121 60.0729C24.0763 56.4913 24.0783 56.4908 24.0799 56.4904L24.0823 56.4891C24.0846 56.4885 24.0872 56.4874 24.0897 56.4867C24.0949 56.4852 24.1008 56.4835 24.107 56.4817C24.1195 56.4782 24.1345 56.4741 24.1513 56.4694C24.1848 56.4602 24.2269 56.4492 24.277 56.4362C24.3777 56.4099 24.5121 56.3762 24.6762 56.3389C25.0045 56.2643 25.4577 56.1726 26.0118 56.0889ZM47.8673 79.9033C47.5401 81.1807 46.5624 82.1906 45.2958 82.5597L44.2522 78.9784L47.8673 79.9033ZM30.0347 63.3279C29.4733 63.2978 28.947 63.303 28.4724 63.3291C28.4567 63.8292 28.4644 64.3863 28.5106 64.9806C28.6976 67.3851 29.5033 70.2064 31.8644 72.5399C34.2187 74.8661 36.996 75.5977 39.3373 75.7234C39.8987 75.7535 40.4249 75.7458 40.8996 75.7197C40.9152 75.2202 40.9088 74.6641 40.8626 74.0707C40.6757 71.6663 39.8698 68.8448 37.5088 66.5114C35.1545 64.1848 32.3761 63.4536 30.0347 63.3279ZM43.2258 75.3909C43.2246 75.3912 43.2226 75.3916 43.2209 75.3921C43.2273 75.3904 43.2311 75.3899 43.232 75.3896C43.2314 75.3898 43.2292 75.3899 43.2258 75.3909ZM26.1486 63.658C26.1503 63.6575 26.1526 63.6586 26.1548 63.658L26.1572 63.6555C26.1538 63.6564 26.151 63.6573 26.1486 63.658ZM28.7373 60.9953L28.7385 60.9917C28.7389 60.9901 28.7394 60.9881 28.7398 60.9867L28.7373 60.9953Z" fill="url(#paint6_linear_287_116)"/>
<path d="M48.3632 58.1226C47.1178 58.5596 45.7335 58.3068 44.7235 57.4575L47.1261 54.6028L48.3632 58.1226ZM50.2483 26.2108C51.4936 25.7739 52.8768 26.0266 53.8868 26.8758L51.4841 29.7305C53.757 27.0306 53.8814 26.8852 53.8892 26.8783L53.8929 26.8795C53.8946 26.8809 53.896 26.8829 53.8979 26.8844C53.9018 26.8878 53.9067 26.8915 53.9114 26.8955C53.921 26.9037 53.932 26.9141 53.9447 26.9251C53.9701 26.9471 54.0022 26.9744 54.0396 27.0076C54.1142 27.074 54.2121 27.1628 54.3291 27.2736C54.5628 27.4949 54.875 27.8063 55.236 28.201C55.954 28.9859 56.8852 30.1279 57.7643 31.5877C59.5208 34.5049 61.1629 38.8632 60.2359 44.1544C59.3077 49.4524 56.2814 52.9642 53.6268 55.0819C52.3005 56.1399 51.0337 56.8799 50.0894 57.3602C49.6148 57.6017 49.2137 57.7815 48.9176 57.9058C48.7694 57.968 48.6463 58.0166 48.5529 58.0524C48.5062 58.0703 48.4664 58.0851 48.4346 58.0967C48.4188 58.1025 48.4047 58.1072 48.3927 58.1115C48.3869 58.1136 48.3816 58.1159 48.3767 58.1176L48.3656 58.1213L47.1261 54.6028L44.721 57.4551L44.7186 57.4526C44.7168 57.4511 44.7144 57.4494 44.7124 57.4477C44.7085 57.4444 44.7035 57.4406 44.6988 57.4366C44.6893 57.4285 44.6781 57.4191 44.6656 57.4083C44.6401 57.3863 44.6093 57.3578 44.5719 57.3245C44.4973 57.2581 44.3994 57.1693 44.2824 57.0585C44.0487 56.8372 43.7353 56.5271 43.3743 56.1324C42.6562 55.3473 41.7251 54.2045 40.846 52.7444C39.0895 49.8272 37.4473 45.4689 38.3743 40.1777C39.3027 34.88 42.3302 31.3691 44.9847 29.2515C46.3111 28.1934 47.5779 27.4534 48.5221 26.9731C48.9969 26.7316 49.3977 26.5518 49.6939 26.4275C49.8421 26.3653 49.9652 26.3168 50.0586 26.281C50.1049 26.2632 50.144 26.2482 50.1756 26.2366C50.1915 26.2308 50.2056 26.2249 50.2175 26.2206C50.2235 26.2185 50.2298 26.2175 50.2348 26.2157C50.2369 26.2149 50.2389 26.2139 50.2409 26.2132L50.2446 26.212C50.2484 26.2182 50.2984 26.3569 51.3153 29.2515L50.2483 26.2108ZM50.6451 34.3562C50.3239 34.5669 49.9849 34.8084 49.6409 35.0828C47.9422 36.438 46.2521 38.4724 45.7277 41.4647C45.2022 44.4639 46.0977 46.9967 47.2419 48.8971C47.4802 49.2927 47.7259 49.6532 47.964 49.9759C48.2854 49.7651 48.625 49.524 48.9694 49.2493C50.6682 47.8941 52.3583 45.86 52.8826 42.8674C53.4081 39.8682 52.5126 37.3354 51.3683 35.4351C51.1299 35.0391 50.8833 34.6791 50.6451 34.3562Z" fill="url(#paint7_linear_287_116)"/>
<path d="M97.5139 29.7305C97.5139 29.7305 105.495 32.5313 106.947 40.8218L107.01 41.2085C108.198 49.2826 101.872 54.6028 101.872 54.6028L101.526 54.4661C100.006 53.8282 93.9323 50.8734 92.5117 43.8958L92.439 43.5115C90.9907 35.2462 97.4744 29.7639 97.5139 29.7305Z" fill="url(#paint8_linear_287_116)"/>
<path d="M108.868 63.8586C115.244 57.5569 123.88 60.0729 123.88 60.0729C123.896 60.136 126.115 68.9132 119.761 75.1924L119.46 75.4818C113.921 80.6628 106.841 79.4626 105.132 79.0742L104.749 78.9784C104.749 78.9784 102.561 70.4334 108.576 64.1554L108.868 63.8586ZM114.23 76.7282V76.7257C114.229 76.7241 114.229 76.7225 114.229 76.7208C114.229 76.7234 114.229 76.7259 114.23 76.7282Z" fill="url(#paint9_linear_287_116)"/>
<path d="M96.8937 94.396C96.9359 94.3616 103.222 89.2409 110.661 92.0943C118.111 94.9514 119.284 102.952 119.289 102.986L119.003 103.203C117.717 104.136 112.252 107.665 105.87 105.417L105.521 105.288C98.0561 102.425 96.8937 94.396 96.8937 94.396Z" fill="url(#paint10_linear_287_116)"/>
<path d="M38.3374 92.0943C45.7776 89.2407 52.0636 94.3621 52.1051 94.396L52.041 94.747C51.7166 96.3227 50.0098 102.782 43.4778 105.288C36.0128 108.151 29.71 102.986 29.71 102.986C29.7149 102.953 30.8511 95.2002 37.9911 92.2322L38.3374 92.0943Z" fill="url(#paint11_linear_287_116)"/>
<path d="M25.121 60.0729C25.1282 60.0708 33.7578 57.5596 40.132 63.8587C46.5089 70.1605 44.2522 78.9784 44.2522 78.9784L43.8678 79.0744C42.1582 79.4629 35.0786 80.6622 29.5406 75.482L29.24 75.1926C23.6598 69.6779 24.6911 62.2365 25.036 60.4633L25.121 60.0729Z" fill="url(#paint12_linear_287_116)"/>
<path d="M51.4841 29.7305C51.4841 29.7305 58.0119 35.2209 56.5593 43.5115L56.4866 43.8958C54.8593 51.8885 47.1261 54.6028 47.1261 54.6028L46.8489 54.3504C45.6415 53.2072 40.9524 48.2576 41.9894 41.2085L42.051 40.8218C43.5009 32.5469 51.4542 29.7411 51.4841 29.7305Z" fill="url(#paint13_linear_287_116)"/>
<defs>
<linearGradient id="paint0_linear_287_116" x1="74.5" y1="26" x2="74.5" y2="123" gradientUnits="userSpaceOnUse">
<stop stop-color="#FFEB7F"/>
<stop offset="1" stop-color="#FFE453"/>
</linearGradient>
<linearGradient id="paint1_linear_287_116" x1="74.5" y1="26" x2="74.5" y2="123" gradientUnits="userSpaceOnUse">
<stop stop-color="#FFEB7F"/>
<stop offset="1" stop-color="#FFE453"/>
</linearGradient>
<linearGradient id="paint2_linear_287_116" x1="74.5" y1="26" x2="74.5" y2="123" gradientUnits="userSpaceOnUse">
<stop stop-color="#FFEB7F"/>
<stop offset="1" stop-color="#FFE453"/>
</linearGradient>
<linearGradient id="paint3_linear_287_116" x1="74.5" y1="26" x2="74.5" y2="123" gradientUnits="userSpaceOnUse">
<stop stop-color="#FFEB7F"/>
<stop offset="1" stop-color="#FFE453"/>
</linearGradient>
<linearGradient id="paint4_linear_287_116" x1="74.5" y1="26" x2="74.5" y2="123" gradientUnits="userSpaceOnUse">
<stop stop-color="#FFEB7F"/>
<stop offset="1" stop-color="#FFE453"/>
</linearGradient>
<linearGradient id="paint5_linear_287_116" x1="74.5" y1="26" x2="74.5" y2="123" gradientUnits="userSpaceOnUse">
<stop stop-color="#FFEB7F"/>
<stop offset="1" stop-color="#FFE453"/>
</linearGradient>
<linearGradient id="paint6_linear_287_116" x1="74.5" y1="26" x2="74.5" y2="123" gradientUnits="userSpaceOnUse">
<stop stop-color="#FFEB7F"/>
<stop offset="1" stop-color="#FFE453"/>
</linearGradient>
<linearGradient id="paint7_linear_287_116" x1="74.5" y1="26" x2="74.5" y2="123" gradientUnits="userSpaceOnUse">
<stop stop-color="#FFEB7F"/>
<stop offset="1" stop-color="#FFE453"/>
</linearGradient>
<linearGradient id="paint8_linear_287_116" x1="74.5" y1="26" x2="74.5" y2="123" gradientUnits="userSpaceOnUse">
<stop stop-color="#FFEB7F"/>
<stop offset="1" stop-color="#FFE453"/>
</linearGradient>
<linearGradient id="paint9_linear_287_116" x1="74.5" y1="26" x2="74.5" y2="123" gradientUnits="userSpaceOnUse">
<stop stop-color="#FFEB7F"/>
<stop offset="1" stop-color="#FFE453"/>
</linearGradient>
<linearGradient id="paint10_linear_287_116" x1="74.5" y1="26" x2="74.5" y2="123" gradientUnits="userSpaceOnUse">
<stop stop-color="#FFEB7F"/>
<stop offset="1" stop-color="#FFE453"/>
</linearGradient>
<linearGradient id="paint11_linear_287_116" x1="74.5" y1="26" x2="74.5" y2="123" gradientUnits="userSpaceOnUse">
<stop stop-color="#FFEB7F"/>
<stop offset="1" stop-color="#FFE453"/>
</linearGradient>
<linearGradient id="paint12_linear_287_116" x1="74.5" y1="26" x2="74.5" y2="123" gradientUnits="userSpaceOnUse">
<stop stop-color="#FFEB7F"/>
<stop offset="1" stop-color="#FFE453"/>
</linearGradient>
<linearGradient id="paint13_linear_287_116" x1="74.5" y1="26" x2="74.5" y2="123" gradientUnits="userSpaceOnUse">
<stop stop-color="#FFEB7F"/>
<stop offset="1" stop-color="#FFE453"/>
</linearGradient>
</defs>
</svg>
