<svg width="150" height="150" viewBox="0 0 150 150" fill="none" xmlns="http://www.w3.org/2000/svg">
<path d="M105.934 95.6133C107.209 94.3594 109.259 94.3762 110.514 95.6514L120.749 106.059C122.134 105.364 123.697 104.972 125.352 104.972C131.033 104.972 135.639 109.578 135.64 115.26C135.64 120.942 131.034 125.549 125.352 125.549C119.67 125.549 115.063 120.942 115.063 115.26C115.064 113.596 115.46 112.025 116.162 110.634L105.896 100.193C104.641 98.918 104.658 96.8676 105.934 95.6133ZM108.107 82.9365L115.894 75.2383C116.941 74.2026 118.629 74.2124 119.665 75.2598C120.701 76.3072 120.692 77.9954 119.645 79.0312L89.1436 109.193C88.0961 110.229 86.4069 110.22 85.3711 109.173C84.3353 108.125 84.3451 106.436 85.3926 105.4L93.1494 97.7285L79.5186 85.4121L96.4443 70.1191L108.107 82.9365ZM92.6553 65.9551L75.3193 81.6191L57.9834 65.9551L75.3193 46.9043L92.6553 65.9551ZM71.5137 42.7227L53.8066 62.1807L33.9004 44.1953V24H54.4766L71.5137 42.7227Z" fill="url(#paint0_linear_287_117)"/>
<path d="M35.5765 115.26C35.5765 120.942 30.9703 125.548 25.2882 125.548C19.6062 125.548 15 120.942 15 115.26C15 109.578 19.6062 104.972 25.2882 104.972C30.9703 104.972 35.5765 109.578 35.5765 115.26Z" fill="url(#paint1_linear_287_117)"/>
<path d="M32.9362 112.201L28.3178 107.659L40.1262 95.6517C41.3805 94.3764 43.4312 94.3593 44.7065 95.6136C45.9819 96.8678 45.999 98.9185 44.7447 100.194L32.9362 112.201Z" fill="url(#paint2_linear_287_117)"/>
<path d="M65.2474 105.4C66.2948 106.436 66.3041 108.125 65.2683 109.172C64.2325 110.22 62.5437 110.229 61.4963 109.193L30.9953 79.0314C29.9479 77.9956 29.9385 76.3068 30.9743 75.2594C32.0101 74.2119 33.699 74.2024 34.7464 75.2382L65.2474 105.4Z" fill="url(#paint3_linear_287_117)"/>
<path d="M116.739 44.1955L57.4866 97.7324L57.1055 98.1133L42.2447 83.2525L96.1627 24H116.739V44.1955Z" fill="url(#paint4_linear_287_117)"/>
<defs>
<linearGradient id="paint0_linear_287_117" x1="84.77" y1="24" x2="84.77" y2="125.549" gradientUnits="userSpaceOnUse">
<stop stop-color="#99C5FF"/>
<stop offset="1" stop-color="#539EFF"/>
</linearGradient>
<linearGradient id="paint1_linear_287_117" x1="65.8696" y1="24" x2="65.8696" y2="125.548" gradientUnits="userSpaceOnUse">
<stop stop-color="#99C5FF"/>
<stop offset="1" stop-color="#539EFF"/>
</linearGradient>
<linearGradient id="paint2_linear_287_117" x1="65.8696" y1="24" x2="65.8696" y2="125.548" gradientUnits="userSpaceOnUse">
<stop stop-color="#99C5FF"/>
<stop offset="1" stop-color="#539EFF"/>
</linearGradient>
<linearGradient id="paint3_linear_287_117" x1="65.8696" y1="24" x2="65.8696" y2="125.548" gradientUnits="userSpaceOnUse">
<stop stop-color="#99C5FF"/>
<stop offset="1" stop-color="#539EFF"/>
</linearGradient>
<linearGradient id="paint4_linear_287_117" x1="65.8696" y1="24" x2="65.8696" y2="125.548" gradientUnits="userSpaceOnUse">
<stop stop-color="#99C5FF"/>
<stop offset="1" stop-color="#539EFF"/>
</linearGradient>
</defs>
</svg>
