<svg width="512" height="512" fill="none" xmlns="http://www.w3.org/2000/svg"><path d="M512 256c0 141.385-114.615 256-256 256S0 397.385 0 256 114.615 0 256 0s256 114.615 256 256z" fill="#BDFF00"/><path d="M417.562 258.668C397.778 331.862 331.375 382.7 255.554 382.7c-75.719 0-142.059-50.704-161.936-123.767L76.85 197.3h110.718c16.632 0 30.988 11.654 34.406 27.931l.148.702c3.332 15.867 17.327 27.228 33.541 27.228 16.213 0 30.208-11.361 33.541-27.228l.147-.702c3.419-16.277 17.775-27.931 34.406-27.931H434.15l-16.588 61.368z" fill="#000"/></svg>