<svg width="35" height="20" viewBox="0 0 35 20" fill="none" xmlns="http://www.w3.org/2000/svg">
<g clip-path="url(#clip0_33_97)">
<mask id="mask0_33_97" style="mask-type:luminance" maskUnits="userSpaceOnUse" x="0" y="0" width="35" height="20">
<path d="M34.1667 0H0.833374V20H34.1667V0Z" fill="white"/>
</mask>
<g mask="url(#mask0_33_97)">
<path d="M22.0065 2.13892H12.9937V17.8612H22.0065V2.13892Z" fill="#FF5F00"/>
<path d="M13.5658 10C13.5658 6.80556 15.1109 3.97222 17.4857 2.13889C15.7404 0.805559 13.5373 0 11.1338 0C5.43995 0 0.833374 4.47222 0.833374 10C0.833374 15.5278 5.43995 20 11.1338 20C13.5373 20 15.7404 19.1944 17.4857 17.8611C15.1109 16.0556 13.5658 13.1944 13.5658 10Z" fill="#EB001B"/>
<path d="M34.1666 10C34.1666 15.5278 29.5599 20 23.866 20C21.4627 20 19.2595 19.1944 17.5142 17.8611C19.9176 16.0278 21.434 13.1944 21.434 10C21.434 6.80556 19.8889 3.97222 17.5142 2.13889C19.2595 0.805559 21.4627 0 23.866 0C29.5599 0 34.1666 4.5 34.1666 10Z" fill="#F79E1B"/>
</g>
</g>
<defs>
<clipPath id="clip0_33_97">
<rect width="33.3333" height="20" fill="white" transform="translate(0.833374)"/>
</clipPath>
</defs>
</svg>
