<svg width="62" height="16" viewBox="0 0 62 16" fill="none" xmlns="http://www.w3.org/2000/svg">
<g clip-path="url(#clip0_33_75)">
<path fill-rule="evenodd" clip-rule="evenodd" d="M6.30614 0.00273029C6.84638 -0.000404651 8.45194 -0.140672 9.13202 2.08575C9.59013 3.58549 10.3199 6.04213 11.3213 9.45568H11.7291C12.8029 5.85688 13.5406 3.40023 13.9422 2.08575C14.6293 -0.163863 16.3473 0.00277438 17.0345 0.00277438L22.3361 0.00278079V16H16.9325V6.57256H16.5701L13.5579 16H9.4924L6.48017 6.56558H6.11782V16H0.714233V0.00278079L6.30614 0.00273029ZM30.0955 0.00278079V9.43721H30.5266L34.1907 1.67935C34.902 0.135509 36.4179 0.00278079 36.4179 0.00278079H41.6469V16H36.1306V6.56558H35.6995L32.1071 14.3234C31.3959 15.8603 29.8082 16 29.8082 16H24.579V0.00278079H30.0955ZM60.7142 7.60477C59.9448 9.71989 57.5283 11.2347 54.8529 11.2347H49.0678V16H43.822V7.60477H60.7142Z" fill="#0F754E"/>
<path fill-rule="evenodd" clip-rule="evenodd" d="M54.5105 0H42.7142C42.9949 3.23264 46.2218 6 49.5623 6H60.6059C61.2433 3.31329 59.0493 0 54.5105 0Z" fill="url(#paint0_linear_33_75)"/>
</g>
<defs>
<linearGradient id="paint0_linear_33_75" x1="60.7142" y1="3.77426" x2="42.7142" y2="3.77426" gradientUnits="userSpaceOnUse">
<stop stop-color="#1F5CD7"/>
<stop offset="1" stop-color="#02AEFF"/>
</linearGradient>
<clipPath id="clip0_33_75">
<rect width="60.5714" height="16" fill="white" transform="translate(0.714233)"/>
</clipPath>
</defs>
</svg>
