<svg width="19" height="22" viewBox="0 0 19 22" fill="none" xmlns="http://www.w3.org/2000/svg">
<g clip-path="url(#clip0_33_115)">
<path d="M0.236816 4.78882L2.90102 9.5509V12.4557L0.239933 17.2084L0.236816 4.78882Z" fill="#5B57A2"/>
<path d="M10.4662 7.81783L12.9626 6.28773L18.0717 6.28296L10.4662 10.9422V7.81783Z" fill="#D90751"/>
<path d="M10.4522 4.76061L10.4663 11.0654L7.7959 9.4246V0L10.4522 4.76061Z" fill="#FAB718"/>
<path d="M18.072 6.28301L12.9626 6.28777L10.4522 4.76061L7.7959 0L18.072 6.28301Z" fill="#ED6F26"/>
<path d="M10.4663 17.2348V14.1759L7.7959 12.5662L7.79737 22.0001L10.4663 17.2348Z" fill="#63B22F"/>
<path d="M12.9565 15.7186L2.90083 9.5509L0.236816 4.78882L18.061 15.7124L12.9565 15.7186Z" fill="#1487C9"/>
<path d="M7.79736 22.0002L10.466 17.2348L12.9562 15.7187L18.0607 15.7124L7.79736 22.0002Z" fill="#017F36"/>
<path d="M0.23999 17.2085L7.8177 12.5665L5.2701 11.0034L2.90107 12.4557L0.23999 17.2085Z" fill="#984995"/>
</g>
<defs>
<clipPath id="clip0_33_115">
<rect width="18.5263" height="22" fill="white" transform="translate(0.236816)"/>
</clipPath>
</defs>
</svg>
