<svg width="48" height="16" viewBox="0 0 48 16" fill="none" xmlns="http://www.w3.org/2000/svg">
<g clip-path="url(#clip0_33_83)">
<path d="M20.8001 15.7694H16.9119L19.3439 0.281006H23.232L20.8001 15.7694Z" fill="#0064B8"/>
<path d="M34.8956 0.659404C34.1286 0.346017 32.9121 0 31.408 0C27.5681 0 24.8641 2.10895 24.8476 5.12411C24.8157 7.3487 26.7836 8.58429 28.2553 9.32603C29.7597 10.084 30.2711 10.5787 30.2711 11.2543C30.2558 12.2919 29.0555 12.7702 27.936 12.7702C26.3836 12.7702 25.5518 12.5237 24.2877 11.9464L23.7757 11.6989L23.2316 15.1757C24.1436 15.6037 25.8238 15.9833 27.5681 16C31.6481 16 34.3043 13.9237 34.3357 10.7105C34.3512 8.94738 33.3121 7.59639 31.0719 6.49242C29.7119 5.78374 28.879 5.30589 28.879 4.58079C28.895 3.9216 29.5835 3.24642 31.1187 3.24642C32.3828 3.21336 33.3115 3.52631 34.0151 3.83947L34.3668 4.00394L34.8956 0.659404Z" fill="#0064B8"/>
<path d="M40.0634 10.2824C40.3836 9.39264 41.6158 5.94889 41.6158 5.94889C41.5996 5.98197 41.9354 5.04269 42.1274 4.46606L42.3991 5.80063C42.3991 5.80063 43.1355 9.50806 43.2954 10.2824C42.6876 10.2824 40.8314 10.2824 40.0634 10.2824ZM44.863 0.281006H41.8554C40.9279 0.281006 40.2233 0.560885 39.8231 1.56609L34.0475 15.7692H38.1274C38.1274 15.7692 38.7991 13.8575 38.9435 13.4459C39.391 13.4459 43.3599 13.4459 43.9357 13.4459C44.0474 13.9896 44.3997 15.7692 44.3997 15.7692H47.9999L44.863 0.281006Z" fill="#0064B8"/>
<path d="M13.6642 0.281006L9.85621 10.8426L9.44009 8.70061C8.73608 6.22899 6.52815 3.54363 4.06421 2.20841L7.55216 15.7529H11.6639L17.7758 0.281006H13.6642Z" fill="#0064B8"/>
<path d="M6.31995 0.281006H0.0640009L0 0.593953C4.88003 1.87926 8.11199 4.97742 9.43985 8.70126L8.07989 1.58295C7.85598 0.593735 7.16792 0.313636 6.31995 0.281006Z" fill="#FAA61A"/>
</g>
<defs>
<clipPath id="clip0_33_83">
<rect width="48" height="16" fill="white"/>
</clipPath>
</defs>
</svg>
